<svg width="75" height="78" xmlns="http://www.w3.org/2000/svg" xmlns:xlink="http://www.w3.org/1999/xlink" xml:space="preserve" overflow="hidden"><defs><clipPath id="clip0"><rect x="761" y="279" width="75" height="78"/></clipPath><clipPath id="clip1"><path d="M835.398 303.379 787.381 279.95 761.246 333.512 809.264 356.941Z" fill-rule="evenodd" clip-rule="evenodd"/></clipPath><clipPath id="clip2"><path d="M835.398 303.379 787.381 279.95 761.246 333.512 809.264 356.941Z" fill-rule="evenodd" clip-rule="evenodd"/></clipPath><clipPath id="clip3"><path d="M835.398 303.379 787.381 279.95 761.246 333.512 809.264 356.941Z" fill-rule="evenodd" clip-rule="evenodd"/></clipPath></defs><g clip-path="url(#clip0)" transform="translate(-761 -279)"><g clip-path="url(#clip1)"><g clip-path="url(#clip2)"><g clip-path="url(#clip3)"><path d="M37.57 22.8186C36.5946 22.8186 35.625 22.9702 34.696 23.2678L33.8005 21.1195C33.1894 19.6598 33.0531 18.0449 33.4109 16.5034L33.9563 14.1414C34.2616 12.8188 33.4368 11.4992 32.1142 11.194 31.9333 11.1522 31.7483 11.1311 31.5626 11.131L29.9542 11.131C29.7203 10.4655 29.0924 10.0195 28.3869 10.0179L24.4911 10.0179C23.5689 10.0179 22.8214 10.7654 22.8214 11.6876 22.8214 12.6097 23.5689 13.3572 24.4911 13.3572L28.3869 13.3572C29.0924 13.3556 29.7203 12.9097 29.9542 12.2441L31.5626 12.2441C32.3049 12.2442 32.9066 12.846 32.9066 13.5883 32.9066 13.69 32.8951 13.7914 32.8722 13.8904L32.3273 16.2513C32.0785 17.3252 32.0376 18.4368 32.2065 19.5261 27.6563 20.6085 23.3926 22.6586 19.7058 25.5368L16.9192 21.9571 19.3947 21.9571C20.3651 21.9585 21.1529 21.173 21.1544 20.2027 21.1557 19.3362 20.5251 18.5982 19.6691 18.4642L12.1829 17.282C10.9 17.0789 9.69519 17.9543 9.49205 19.2373 9.28891 20.5202 10.1643 21.725 11.4473 21.9281 11.5691 21.9475 11.6923 21.9571 11.8156 21.9571L15.5094 21.9571 18.8421 26.2425C17.6084 27.2822 16.4562 28.4148 15.3953 29.6303 12.2197 28.035 8.35201 29.3162 6.75671 32.4919 5.16145 35.6676 6.44264 39.5352 9.61833 41.1305 12.7941 42.7258 16.6617 41.4446 18.257 38.2689 19.6583 35.4793 18.8552 32.0862 16.3521 30.2208 20.5916 25.4239 26.2151 22.0607 32.447 20.5952 32.5379 20.9187 32.6473 21.2366 32.7748 21.5475L33.6608 23.6746C28.9183 25.8443 26.8326 31.4477 29.0024 36.1902 31.172 40.9327 36.7754 43.0183 41.5179 40.8486 46.2604 38.679 48.3461 33.0755 46.1764 28.3331 44.6364 24.967 41.2717 22.8111 37.57 22.8186ZM28.3869 12.2441 24.4911 12.2441C24.1837 12.2441 23.9345 11.995 23.9345 11.6876 23.9345 11.3802 24.1837 11.131 24.4911 11.131L28.3869 11.131C28.6943 11.131 28.9435 11.3802 28.9435 11.6876 28.9435 11.995 28.6943 12.2441 28.3869 12.2441ZM17.8124 35.341C17.8213 38.27 15.4541 40.6516 12.5251 40.6605 9.59618 40.6694 7.21458 38.3021 7.20573 35.3732 7.19683 32.4442 9.56407 30.0627 12.493 30.0537 13.2551 30.0515 14.0086 30.2134 14.7024 30.5285 14.038 31.4623 13.4218 32.4296 12.8563 33.4265 11.7929 33.2408 10.7804 33.9523 10.5946 35.0158 10.409 36.0792 11.1205 37.0918 12.1839 37.2775 13.2473 37.4631 14.2599 36.7516 14.4456 35.6882 14.5592 35.0376 14.3366 34.3736 13.8537 33.923 14.3874 32.949 15.2044 31.7524 15.6653 31.0962 17.0145 32.0899 17.8114 33.6654 17.8124 35.341ZM13.36 35.341C13.36 35.8021 12.9862 36.1759 12.5252 36.1759 12.0642 36.1759 11.6904 35.8021 11.6904 35.341 11.6904 34.88 12.0642 34.5062 12.5252 34.5062 12.9862 34.5062 13.36 34.88 13.36 35.341ZM10.5773 19.6051C10.5769 18.9212 11.1311 18.3665 11.815 18.3662 11.8799 18.3662 11.9447 18.3713 12.0087 18.3818L19.4949 19.5639C19.8463 19.6191 20.0863 19.9486 20.0312 20.2999 19.982 20.6133 19.7119 20.8441 19.3947 20.844L11.8156 20.844C11.1319 20.843 10.5779 20.2888 10.5773 19.6051ZM37.57 40.6283C32.9628 40.6319 29.2249 36.8999 29.2213 32.2927 29.2187 29.0285 31.1203 26.0626 34.0877 24.7026L36.2343 29.854C34.9065 30.6038 34.4379 32.288 35.1877 33.6158 35.9375 34.9437 37.6217 35.4122 38.9496 34.6624 40.2774 33.9127 40.7459 32.2284 39.9962 30.9006 39.5026 30.0266 38.5737 29.4893 37.57 29.4972 37.4806 29.5018 37.3914 29.5109 37.3029 29.5245L35.1251 24.2985C39.5332 22.9469 44.2023 25.4246 45.5539 29.8327 46.9055 34.2408 44.4278 38.9099 40.0197 40.2615 39.2259 40.5049 38.4003 40.6285 37.57 40.6283ZM39.2397 32.28C39.2397 33.2022 38.4921 33.9497 37.57 33.9497 36.6479 33.9497 35.9004 33.2022 35.9004 32.28 35.9004 31.3579 36.6479 30.6104 37.57 30.6104 38.4921 30.6104 39.2397 31.3579 39.2397 32.28Z" transform="matrix(-0.898724 -0.438515 -0.489145 1.00249 835.398 303.379)"/></g></g></g></g></svg>